<?xml version="1.0" encoding="utf-8"?>
<!-- Generator: Adobe Illustrator 19.0.0, SVG Export Plug-In . SVG Version: 6.00 Build 0)  -->
<svg version="1.1" id="Layer_1" xmlns="http://www.w3.org/2000/svg" xmlns:xlink="http://www.w3.org/1999/xlink" x="0px" y="0px"
	 viewBox="0 0 512 512" style="enable-background:new 0 0 512 512;" xml:space="preserve">
<style type="text/css">
	.st0{fill:#4F5D73;}
	.st1{fill:#465162;}
	.st2{fill:#E0995E;}
	.st3{fill:#3F4755;}
	.st4{fill:#BA8152;}
	.st5{fill:#393F4A;}
	.st6{fill:#9C6D48;}
	.st7{fill:#FFFFFF;}
</style>
<g id="XMLID_1_">
	<path id="XMLID_3_" class="st0" d="M256,0c141,0,256,115,256,256S397,512,256,512S0,397,0,256S115,0,256,0"/>
	<path id="XMLID_4_" class="st1" d="M96.1,184.3c0,2.4-0.8,5.5-0.8,7.9c0,32.3,18.9,59.9,46.5,72.5c4.7-1.6,10.2-3.2,15.8-3.9
		c0.8-2.4,0.8-3.9,1.6-6.3c-10.2-2.4-20.5-6.3-29.1-11.8l0,0C111.9,229.2,98.5,208,96.1,184.3"/>
	<path id="XMLID_5_" class="st2" d="M175.7,96.1c44.1,0,80.3,35.4,80.3,80.3S220.6,256,175.7,256c-44.1,0-80.3-35.4-80.3-80.3
		S131.5,96.1,175.7,96.1"/>
	<path id="XMLID_6_" class="st1" d="M271.8,175.7c-5.5,0-11,0-15.8,0.8c0,2.4,0,4.7,0,7.1c0,2.4,0.8,5.5,0.8,7.9
		c-0.8,44.9-36.2,80.3-81.1,80.3c-11.8,0-22.8-2.4-33.1-7.1c-27.6,10.2-46.5,35.4-46.5,64.6c0,38.6,33.1,70.1,73.3,70.1h220.6
		c33.1,0,58.3-24.4,58.3-55.9s-26.8-55.9-58.3-55.9C389.9,226.1,337.1,175.7,271.8,175.7"/>
	<path id="XMLID_7_" class="st3" d="M255.2,184.3c-3.9,40.2-37.8,71.7-79.6,71.7l0,0l0,0l0,0c-5.5,0-10.2-0.8-15.8-1.6
		c-0.8,2.4-1.6,3.9-1.6,6.3c-5.5,0.8-11,2.4-15.8,3.9c10.2,4.7,21.3,7.1,33.1,7.1c44.9,0,80.3-35.4,80.3-79.6
		C256,189,256,186.7,255.2,184.3"/>
	<path id="XMLID_10_" class="st4" d="M175.7,256L175.7,256L175.7,256 M256,177.2L256,177.2c-0.8,43.3-36.2,78.8-80.3,78.8l0,0l0,0
		c41.7,0,75.6-31.5,79.6-71.7C256,182,256,179.6,256,177.2"/>
	<path id="XMLID_13_" class="st1" d="M256,175.7L256,175.7L256,175.7L256,175.7 M252.8,152.8L252.8,152.8c0,1.6,0.8,2.4,0.8,3.9
		C253.6,155.2,252.8,153.6,252.8,152.8"/>
	<path id="XMLID_14_" class="st3" d="M131.5,242.6L131.5,242.6c8.7,6.3,18.1,10.2,29.1,11.8l0,0
		C149.7,252.1,140.2,248.1,131.5,242.6"/>
	<path id="XMLID_15_" class="st4" d="M252.8,152.8c-49.6,4.7-90.6,39.4-102.4,84.3c-6.3,0.8-12.6,3.2-18.9,5.5
		c8.7,5.5,18.1,10.2,29.1,11.8c13.4-41,50.4-71.7,96.1-77.2v-0.8l0,0c0-6.3-0.8-13.4-2.4-19.7C253.6,155.2,252.8,153.6,252.8,152.8"
		/>
	<path id="XMLID_18_" class="st5" d="M175.7,256L175.7,256L175.7,256 M159.9,254.4L159.9,254.4c4.7,0.8,10.2,1.6,15.8,1.6
		C170.1,256,165.4,255.2,159.9,254.4"/>
	<path id="XMLID_19_" class="st6" d="M256,177.2c-45.7,5.5-81.9,36.2-96.1,77.2c4.7,0.8,10.2,1.6,15.8,1.6l0,0l0,0l0,0
		C219.8,256,255.2,220.6,256,177.2"/>
	<path id="XMLID_20_" class="st7" d="M389.9,271.8c0-61.4-52.8-111.9-117.4-111.9c-55.1,0-100.8,36.2-113.4,85.1
		c-35.4,4.7-62.2,34.7-62.2,68.5c0,38.6,33.1,70.1,73.3,70.1h219.8c33.1,0,58.3-24.4,58.3-55.9C448.2,297,421.4,271.8,389.9,271.8z"
		/>
</g>
</svg>
